# Blender v2.76 (sub 0) OBJ File: 'blocks.blend'
# www.blender.org
mtllib cube-4-faces.mtl
o cube-3-faces_Cube.002
v 1.000000 -1.000000 -1.000000
v 1.000000 -1.000000 1.000000
v -1.000000 -1.000000 1.000000
v -1.000000 -1.000000 -1.000000
v 1.000000 1.000000 -0.999999
v 0.999999 1.000000 1.000001
v -1.000000 1.000000 1.000000
v -1.000000 1.000000 -1.000000
vt 0.501965 0.999058
vt 0.501965 0.502974
vt 0.998049 0.502974
vt 0.998049 0.999058
vt 0.499063 0.999058
vt 0.000948 0.999058
vt 0.000948 0.500942
vt 0.499063 0.500942
vt 0.998049 0.001971
vt 0.998049 0.498029
vt 0.501990 0.498030
vt 0.501990 0.001971
vt 0.498029 0.001970
vt 0.498030 0.498029
vt 0.001971 0.498030
vt 0.001971 0.001971
vn 0.000000 -1.000000 0.000000
vn 0.000000 1.000000 0.000000
vn 1.000000 0.000000 0.000000
vn -0.000000 -0.000000 1.000000
vn -1.000000 -0.000000 -0.000000
vn 0.000000 0.000000 -1.000000
usemtl Material
s off
f 1/1/1 2/2/1 3/3/1 4/4/1
f 5/5/2 8/6/2 7/7/2 6/8/2
f 1/9/3 5/10/3 6/11/3 2/12/3
f 2/13/4 6/14/4 7/15/4 3/16/4
f 3/9/5 7/10/5 8/11/5 4/12/5
f 5/11/6 1/12/6 4/9/6 8/10/6
