# MagicaVoxel @ Ephtracy

# group
o 

# material
mtllib Canon_wheel.mtl
usemtl palette

# normals
vn -1 0 0
vn 1 0 0
vn 0 0 1
vn 0 0 -1
vn 0 -1 0
vn 0 1 0

# texcoords
vt 0.259766 0.5
vt 0.626953 0.5
vt 0.751953 0.5

# verts
v -1 0 0.2
v -1 0 -0.3
v -1 0.1 0.4
v -1 0.1 0.2
v -1 0.1 -0.3
v -1 0.1 -0.5
v -1 0.2 0.5
v -1 0.2 0.4
v -1 0.2 0.2
v -1 0.2 -0.3
v -1 0.2 -0.5
v -1 0.2 -0.6
v -1 0.3 0.6
v -1 0.3 0.5
v -1 0.3 0.4
v -1 0.3 -0.5
v -1 0.3 -0.6
v -1 0.3 -0.7
v -1 0.5 0.7
v -1 0.5 0.6
v -1 0.5 0.5
v -1 0.5 -0.6
v -1 0.5 -0.7
v -1 0.5 -0.8
v -1 1 0.7
v -1 1 0.6
v -1 1 0.5
v -1 1 -0.6
v -1 1 -0.7
v -1 1 -0.8
v -1 1.2 0.6
v -1 1.2 0.5
v -1 1.2 0.4
v -1 1.2 -0.5
v -1 1.2 -0.6
v -1 1.2 -0.7
v -1 1.3 0.5
v -1 1.3 0.4
v -1 1.3 0.2
v -1 1.3 -0.3
v -1 1.3 -0.5
v -1 1.3 -0.6
v -1 1.4 0.4
v -1 1.4 0.2
v -1 1.4 -0.3
v -1 1.4 -0.5
v -1 1.5 0.2
v -1 1.5 -0.3
v 0.9 0 0.2
v 0.9 0 -0.3
v 0.9 0.1 0.4
v 0.9 0.1 0.2
v 0.9 0.1 -0.3
v 0.9 0.1 -0.5
v 0.9 0.2 0.5
v 0.9 0.2 0.4
v 0.9 0.2 0.2
v 0.9 0.2 -0.3
v 0.9 0.2 -0.5
v 0.9 0.2 -0.6
v 0.9 0.3 0.6
v 0.9 0.3 0.5
v 0.9 0.3 0.4
v 0.9 0.3 -0.5
v 0.9 0.3 -0.6
v 0.9 0.3 -0.7
v 0.9 0.5 0.7
v 0.9 0.5 0.6
v 0.9 0.5 0.5
v 0.9 0.5 -0.6
v 0.9 0.5 -0.7
v 0.9 0.5 -0.8
v 0.9 0.7 -0.1
v 0.9 0.7 -0.3
v 0.9 0.9 -0.1
v 0.9 0.9 -0.3
v 0.9 1 0.7
v 0.9 1 0.6
v 0.9 1 0.5
v 0.9 1 -0.6
v 0.9 1 -0.7
v 0.9 1 -0.8
v 0.9 1.2 0.6
v 0.9 1.2 0.5
v 0.9 1.2 0.4
v 0.9 1.2 -0.5
v 0.9 1.2 -0.6
v 0.9 1.2 -0.7
v 0.9 1.3 0.5
v 0.9 1.3 0.4
v 0.9 1.3 0.2
v 0.9 1.3 -0.3
v 0.9 1.3 -0.5
v 0.9 1.3 -0.6
v 0.9 1.4 0.4
v 0.9 1.4 0.2
v 0.9 1.4 -0.3
v 0.9 1.4 -0.5
v 0.9 1.5 0.2
v 0.9 1.5 -0.3
v -0.8 0 0.2
v -0.8 0 -0.3
v -0.8 0.1 0.4
v -0.8 0.1 0.2
v -0.8 0.1 -0.3
v -0.8 0.1 -0.5
v -0.8 0.2 0.5
v -0.8 0.2 0.4
v -0.8 0.2 0.2
v -0.8 0.2 -0.3
v -0.8 0.2 -0.5
v -0.8 0.2 -0.6
v -0.8 0.3 0.6
v -0.8 0.3 0.5
v -0.8 0.3 0.4
v -0.8 0.3 -0.5
v -0.8 0.3 -0.6
v -0.8 0.3 -0.7
v -0.8 0.5 0.7
v -0.8 0.5 0.6
v -0.8 0.5 0.5
v -0.8 0.5 -0.6
v -0.8 0.5 -0.7
v -0.8 0.5 -0.8
v -0.8 0.7 -0.1
v -0.8 0.7 -0.3
v -0.8 0.9 -0.1
v -0.8 0.9 -0.3
v -0.8 1 0.7
v -0.8 1 0.6
v -0.8 1 0.5
v -0.8 1 -0.6
v -0.8 1 -0.7
v -0.8 1 -0.8
v -0.8 1.2 0.6
v -0.8 1.2 0.5
v -0.8 1.2 0.4
v -0.8 1.2 -0.5
v -0.8 1.2 -0.6
v -0.8 1.2 -0.7
v -0.8 1.3 0.5
v -0.8 1.3 0.4
v -0.8 1.3 0.2
v -0.8 1.3 -0.3
v -0.8 1.3 -0.5
v -0.8 1.3 -0.6
v -0.8 1.4 0.4
v -0.8 1.4 0.2
v -0.8 1.4 -0.3
v -0.8 1.4 -0.5
v -0.8 1.5 0.2
v -0.8 1.5 -0.3
v 1.1 0 0.2
v 1.1 0 -0.3
v 1.1 0.1 0.4
v 1.1 0.1 0.2
v 1.1 0.1 -0.3
v 1.1 0.1 -0.5
v 1.1 0.2 0.5
v 1.1 0.2 0.4
v 1.1 0.2 0.2
v 1.1 0.2 -0.3
v 1.1 0.2 -0.5
v 1.1 0.2 -0.6
v 1.1 0.3 0.6
v 1.1 0.3 0.5
v 1.1 0.3 0.4
v 1.1 0.3 -0.5
v 1.1 0.3 -0.6
v 1.1 0.3 -0.7
v 1.1 0.5 0.7
v 1.1 0.5 0.6
v 1.1 0.5 0.5
v 1.1 0.5 -0.6
v 1.1 0.5 -0.7
v 1.1 0.5 -0.8
v 1.1 1 0.7
v 1.1 1 0.6
v 1.1 1 0.5
v 1.1 1 -0.6
v 1.1 1 -0.7
v 1.1 1 -0.8
v 1.1 1.2 0.6
v 1.1 1.2 0.5
v 1.1 1.2 0.4
v 1.1 1.2 -0.5
v 1.1 1.2 -0.6
v 1.1 1.2 -0.7
v 1.1 1.3 0.5
v 1.1 1.3 0.4
v 1.1 1.3 0.2
v 1.1 1.3 -0.3
v 1.1 1.3 -0.5
v 1.1 1.3 -0.6
v 1.1 1.4 0.4
v 1.1 1.4 0.2
v 1.1 1.4 -0.3
v 1.1 1.4 -0.5
v 1.1 1.5 0.2
v 1.1 1.5 -0.3
v -1 0.5 0.7
v -1 1 0.7
v -0.8 0.5 0.7
v -0.8 1 0.7
v 0.9 0.5 0.7
v 0.9 1 0.7
v 1.1 0.5 0.7
v 1.1 1 0.7
v -1 0.3 0.6
v -1 0.5 0.6
v -1 1 0.6
v -1 1.2 0.6
v -0.8 0.3 0.6
v -0.8 0.5 0.6
v -0.8 1 0.6
v -0.8 1.2 0.6
v 0.9 0.3 0.6
v 0.9 0.5 0.6
v 0.9 1 0.6
v 0.9 1.2 0.6
v 1.1 0.3 0.6
v 1.1 0.5 0.6
v 1.1 1 0.6
v 1.1 1.2 0.6
v -1 0.2 0.5
v -1 0.3 0.5
v -1 1.2 0.5
v -1 1.3 0.5
v -0.8 0.2 0.5
v -0.8 0.3 0.5
v -0.8 1.2 0.5
v -0.8 1.3 0.5
v 0.9 0.2 0.5
v 0.9 0.3 0.5
v 0.9 1.2 0.5
v 0.9 1.3 0.5
v 1.1 0.2 0.5
v 1.1 0.3 0.5
v 1.1 1.2 0.5
v 1.1 1.3 0.5
v -1 0.1 0.4
v -1 0.2 0.4
v -1 1.3 0.4
v -1 1.4 0.4
v -0.8 0.1 0.4
v -0.8 0.2 0.4
v -0.8 1.3 0.4
v -0.8 1.4 0.4
v 0.9 0.1 0.4
v 0.9 0.2 0.4
v 0.9 1.3 0.4
v 0.9 1.4 0.4
v 1.1 0.1 0.4
v 1.1 0.2 0.4
v 1.1 1.3 0.4
v 1.1 1.4 0.4
v -1 0 0.2
v -1 0.1 0.2
v -1 1.4 0.2
v -1 1.5 0.2
v -0.8 0 0.2
v -0.8 0.1 0.2
v -0.8 1.4 0.2
v -0.8 1.5 0.2
v 0.9 0 0.2
v 0.9 0.1 0.2
v 0.9 1.4 0.2
v 0.9 1.5 0.2
v 1.1 0 0.2
v 1.1 0.1 0.2
v 1.1 1.4 0.2
v 1.1 1.5 0.2
v -0.8 0.7 -0.1
v -0.8 0.9 -0.1
v 0.9 0.7 -0.1
v 0.9 0.9 -0.1
v -1 0 -0.3
v -1 0.1 -0.3
v -1 1.4 -0.3
v -1 1.5 -0.3
v -0.8 0 -0.3
v -0.8 0.1 -0.3
v -0.8 0.7 -0.3
v -0.8 0.9 -0.3
v -0.8 1.4 -0.3
v -0.8 1.5 -0.3
v 0.9 0 -0.3
v 0.9 0.1 -0.3
v 0.9 0.7 -0.3
v 0.9 0.9 -0.3
v 0.9 1.4 -0.3
v 0.9 1.5 -0.3
v 1.1 0 -0.3
v 1.1 0.1 -0.3
v 1.1 1.4 -0.3
v 1.1 1.5 -0.3
v -1 0.1 -0.5
v -1 0.2 -0.5
v -1 1.3 -0.5
v -1 1.4 -0.5
v -0.8 0.1 -0.5
v -0.8 0.2 -0.5
v -0.8 1.3 -0.5
v -0.8 1.4 -0.5
v 0.9 0.1 -0.5
v 0.9 0.2 -0.5
v 0.9 1.3 -0.5
v 0.9 1.4 -0.5
v 1.1 0.1 -0.5
v 1.1 0.2 -0.5
v 1.1 1.3 -0.5
v 1.1 1.4 -0.5
v -1 0.2 -0.6
v -1 0.3 -0.6
v -1 1.2 -0.6
v -1 1.3 -0.6
v -0.8 0.2 -0.6
v -0.8 0.3 -0.6
v -0.8 1.2 -0.6
v -0.8 1.3 -0.6
v 0.9 0.2 -0.6
v 0.9 0.3 -0.6
v 0.9 1.2 -0.6
v 0.9 1.3 -0.6
v 1.1 0.2 -0.6
v 1.1 0.3 -0.6
v 1.1 1.2 -0.6
v 1.1 1.3 -0.6
v -1 0.3 -0.7
v -1 0.5 -0.7
v -1 1 -0.7
v -1 1.2 -0.7
v -0.8 0.3 -0.7
v -0.8 0.5 -0.7
v -0.8 1 -0.7
v -0.8 1.2 -0.7
v 0.9 0.3 -0.7
v 0.9 0.5 -0.7
v 0.9 1 -0.7
v 0.9 1.2 -0.7
v 1.1 0.3 -0.7
v 1.1 0.5 -0.7
v 1.1 1 -0.7
v 1.1 1.2 -0.7
v -1 0.5 -0.8
v -1 1 -0.8
v -0.8 0.5 -0.8
v -0.8 1 -0.8
v 0.9 0.5 -0.8
v 0.9 1 -0.8
v 1.1 0.5 -0.8
v 1.1 1 -0.8
v -1 0 0.2
v -0.8 0 0.2
v 0.9 0 0.2
v 1.1 0 0.2
v -1 0 -0.3
v -0.8 0 -0.3
v 0.9 0 -0.3
v 1.1 0 -0.3
v -1 0.1 0.4
v -0.8 0.1 0.4
v 0.9 0.1 0.4
v 1.1 0.1 0.4
v -1 0.1 0.2
v -0.8 0.1 0.2
v 0.9 0.1 0.2
v 1.1 0.1 0.2
v -1 0.1 -0.3
v -0.8 0.1 -0.3
v 0.9 0.1 -0.3
v 1.1 0.1 -0.3
v -1 0.1 -0.5
v -0.8 0.1 -0.5
v 0.9 0.1 -0.5
v 1.1 0.1 -0.5
v -1 0.2 0.5
v -0.8 0.2 0.5
v 0.9 0.2 0.5
v 1.1 0.2 0.5
v -1 0.2 0.4
v -0.8 0.2 0.4
v 0.9 0.2 0.4
v 1.1 0.2 0.4
v -1 0.2 -0.5
v -0.8 0.2 -0.5
v 0.9 0.2 -0.5
v 1.1 0.2 -0.5
v -1 0.2 -0.6
v -0.8 0.2 -0.6
v 0.9 0.2 -0.6
v 1.1 0.2 -0.6
v -1 0.3 0.6
v -0.8 0.3 0.6
v 0.9 0.3 0.6
v 1.1 0.3 0.6
v -1 0.3 0.5
v -0.8 0.3 0.5
v 0.9 0.3 0.5
v 1.1 0.3 0.5
v -1 0.3 -0.6
v -0.8 0.3 -0.6
v 0.9 0.3 -0.6
v 1.1 0.3 -0.6
v -1 0.3 -0.7
v -0.8 0.3 -0.7
v 0.9 0.3 -0.7
v 1.1 0.3 -0.7
v -1 0.5 0.7
v -0.8 0.5 0.7
v 0.9 0.5 0.7
v 1.1 0.5 0.7
v -1 0.5 0.6
v -0.8 0.5 0.6
v 0.9 0.5 0.6
v 1.1 0.5 0.6
v -1 0.5 -0.7
v -0.8 0.5 -0.7
v 0.9 0.5 -0.7
v 1.1 0.5 -0.7
v -1 0.5 -0.8
v -0.8 0.5 -0.8
v 0.9 0.5 -0.8
v 1.1 0.5 -0.8
v -0.8 0.7 -0.1
v 0.9 0.7 -0.1
v -0.8 0.7 -0.3
v 0.9 0.7 -0.3
v -0.8 0.9 -0.1
v 0.9 0.9 -0.1
v -0.8 0.9 -0.3
v 0.9 0.9 -0.3
v -1 1 0.7
v -0.8 1 0.7
v 0.9 1 0.7
v 1.1 1 0.7
v -1 1 0.6
v -0.8 1 0.6
v 0.9 1 0.6
v 1.1 1 0.6
v -1 1 -0.7
v -0.8 1 -0.7
v 0.9 1 -0.7
v 1.1 1 -0.7
v -1 1 -0.8
v -0.8 1 -0.8
v 0.9 1 -0.8
v 1.1 1 -0.8
v -1 1.2 0.6
v -0.8 1.2 0.6
v 0.9 1.2 0.6
v 1.1 1.2 0.6
v -1 1.2 0.5
v -0.8 1.2 0.5
v 0.9 1.2 0.5
v 1.1 1.2 0.5
v -1 1.2 -0.6
v -0.8 1.2 -0.6
v 0.9 1.2 -0.6
v 1.1 1.2 -0.6
v -1 1.2 -0.7
v -0.8 1.2 -0.7
v 0.9 1.2 -0.7
v 1.1 1.2 -0.7
v -1 1.3 0.5
v -0.8 1.3 0.5
v 0.9 1.3 0.5
v 1.1 1.3 0.5
v -1 1.3 0.4
v -0.8 1.3 0.4
v 0.9 1.3 0.4
v 1.1 1.3 0.4
v -1 1.3 -0.5
v -0.8 1.3 -0.5
v 0.9 1.3 -0.5
v 1.1 1.3 -0.5
v -1 1.3 -0.6
v -0.8 1.3 -0.6
v 0.9 1.3 -0.6
v 1.1 1.3 -0.6
v -1 1.4 0.4
v -0.8 1.4 0.4
v 0.9 1.4 0.4
v 1.1 1.4 0.4
v -1 1.4 0.2
v -0.8 1.4 0.2
v 0.9 1.4 0.2
v 1.1 1.4 0.2
v -1 1.4 -0.3
v -0.8 1.4 -0.3
v 0.9 1.4 -0.3
v 1.1 1.4 -0.3
v -1 1.4 -0.5
v -0.8 1.4 -0.5
v 0.9 1.4 -0.5
v 1.1 1.4 -0.5
v -1 1.5 0.2
v -0.8 1.5 0.2
v 0.9 1.5 0.2
v 1.1 1.5 0.2
v -1 1.5 -0.3
v -0.8 1.5 -0.3
v 0.9 1.5 -0.3
v 1.1 1.5 -0.3

# faces
f 4/3/1 2/3/1 1/3/1
f 5/3/1 2/3/1 4/3/1
f 8/3/1 4/3/1 3/3/1
f 9/2/1 5/2/1 4/2/1
f 9/3/1 4/3/1 8/3/1
f 10/3/1 6/3/1 5/3/1
f 10/2/1 5/2/1 9/2/1
f 11/3/1 6/3/1 10/3/1
f 14/3/1 8/3/1 7/3/1
f 15/2/1 9/2/1 8/2/1
f 15/2/1 10/2/1 9/2/1
f 15/3/1 8/3/1 14/3/1
f 15/2/1 11/2/1 10/2/1
f 16/3/1 12/3/1 11/3/1
f 16/2/1 11/2/1 15/2/1
f 17/3/1 12/3/1 16/3/1
f 20/3/1 14/3/1 13/3/1
f 21/2/1 15/2/1 14/2/1
f 21/2/1 16/2/1 15/2/1
f 21/3/1 14/3/1 20/3/1
f 21/2/1 17/2/1 16/2/1
f 22/3/1 18/3/1 17/3/1
f 22/2/1 17/2/1 21/2/1
f 23/3/1 18/3/1 22/3/1
f 25/3/1 20/3/1 19/3/1
f 26/2/1 21/2/1 20/2/1
f 26/3/1 20/3/1 25/3/1
f 26/2/1 22/2/1 21/2/1
f 26/2/1 23/2/1 22/2/1
f 27/2/1 23/2/1 26/2/1
f 28/2/1 23/2/1 27/2/1
f 29/3/1 24/3/1 23/3/1
f 29/2/1 23/2/1 28/2/1
f 30/3/1 24/3/1 29/3/1
f 31/3/1 27/3/1 26/3/1
f 32/2/1 28/2/1 27/2/1
f 32/3/1 27/3/1 31/3/1
f 33/2/1 28/2/1 32/2/1
f 34/2/1 28/2/1 33/2/1
f 35/3/1 29/3/1 28/3/1
f 35/2/1 28/2/1 34/2/1
f 36/3/1 29/3/1 35/3/1
f 37/3/1 33/3/1 32/3/1
f 38/2/1 34/2/1 33/2/1
f 38/3/1 33/3/1 37/3/1
f 39/2/1 34/2/1 38/2/1
f 40/2/1 34/2/1 39/2/1
f 41/3/1 35/3/1 34/3/1
f 41/2/1 34/2/1 40/2/1
f 42/3/1 35/3/1 41/3/1
f 43/3/1 39/3/1 38/3/1
f 44/2/1 40/2/1 39/2/1
f 44/3/1 39/3/1 43/3/1
f 45/3/1 41/3/1 40/3/1
f 45/2/1 40/2/1 44/2/1
f 46/3/1 41/3/1 45/3/1
f 47/3/1 45/3/1 44/3/1
f 48/3/1 45/3/1 47/3/1
f 52/3/1 50/3/1 49/3/1
f 53/3/1 50/3/1 52/3/1
f 56/3/1 52/3/1 51/3/1
f 57/2/1 53/2/1 52/2/1
f 57/3/1 52/3/1 56/3/1
f 58/3/1 54/3/1 53/3/1
f 58/2/1 53/2/1 57/2/1
f 59/3/1 54/3/1 58/3/1
f 62/3/1 56/3/1 55/3/1
f 63/2/1 57/2/1 56/2/1
f 63/2/1 58/2/1 57/2/1
f 63/3/1 56/3/1 62/3/1
f 63/2/1 59/2/1 58/2/1
f 64/3/1 60/3/1 59/3/1
f 64/2/1 59/2/1 63/2/1
f 65/3/1 60/3/1 64/3/1
f 68/3/1 62/3/1 61/3/1
f 69/2/1 63/2/1 62/2/1
f 69/2/1 64/2/1 63/2/1
f 69/3/1 62/3/1 68/3/1
f 69/2/1 65/2/1 64/2/1
f 70/3/1 66/3/1 65/3/1
f 70/2/1 65/2/1 69/2/1
f 71/3/1 66/3/1 70/3/1
f 73/2/1 69/2/1 68/2/1
f 73/2/1 70/2/1 69/2/1
f 73/2/1 71/2/1 70/2/1
f 74/2/1 71/2/1 73/2/1
f 75/2/1 73/2/1 68/2/1
f 76/2/1 71/2/1 74/2/1
f 77/3/1 68/3/1 67/3/1
f 78/2/1 76/2/1 75/2/1
f 78/3/1 68/3/1 77/3/1
f 78/2/1 75/2/1 68/2/1
f 79/2/1 76/2/1 78/2/1
f 80/2/1 71/2/1 76/2/1
f 80/2/1 76/2/1 79/2/1
f 81/3/1 72/3/1 71/3/1
f 81/2/1 71/2/1 80/2/1
f 82/3/1 72/3/1 81/3/1
f 83/3/1 79/3/1 78/3/1
f 84/2/1 80/2/1 79/2/1
f 84/3/1 79/3/1 83/3/1
f 85/2/1 80/2/1 84/2/1
f 86/2/1 80/2/1 85/2/1
f 87/3/1 81/3/1 80/3/1
f 87/2/1 80/2/1 86/2/1
f 88/3/1 81/3/1 87/3/1
f 89/3/1 85/3/1 84/3/1
f 90/2/1 86/2/1 85/2/1
f 90/3/1 85/3/1 89/3/1
f 91/2/1 86/2/1 90/2/1
f 92/2/1 86/2/1 91/2/1
f 93/3/1 87/3/1 86/3/1
f 93/2/1 86/2/1 92/2/1
f 94/3/1 87/3/1 93/3/1
f 95/3/1 91/3/1 90/3/1
f 96/2/1 92/2/1 91/2/1
f 96/3/1 91/3/1 95/3/1
f 97/3/1 93/3/1 92/3/1
f 97/2/1 92/2/1 96/2/1
f 98/3/1 93/3/1 97/3/1
f 99/3/1 97/3/1 96/3/1
f 100/3/1 97/3/1 99/3/1
f 101/3/2 102/3/2 104/3/2
f 104/3/2 102/3/2 105/3/2
f 103/3/2 104/3/2 108/3/2
f 104/2/2 105/2/2 109/2/2
f 108/3/2 104/3/2 109/3/2
f 105/3/2 106/3/2 110/3/2
f 109/2/2 105/2/2 110/2/2
f 110/3/2 106/3/2 111/3/2
f 107/3/2 108/3/2 114/3/2
f 108/2/2 109/2/2 115/2/2
f 109/2/2 110/2/2 115/2/2
f 114/3/2 108/3/2 115/3/2
f 110/2/2 111/2/2 115/2/2
f 111/3/2 112/3/2 116/3/2
f 115/2/2 111/2/2 116/2/2
f 116/3/2 112/3/2 117/3/2
f 113/3/2 114/3/2 120/3/2
f 114/2/2 115/2/2 121/2/2
f 115/2/2 116/2/2 121/2/2
f 120/3/2 114/3/2 121/3/2
f 116/2/2 117/2/2 121/2/2
f 117/3/2 118/3/2 122/3/2
f 121/2/2 117/2/2 122/2/2
f 122/3/2 118/3/2 123/3/2
f 120/2/2 121/2/2 125/2/2
f 121/2/2 122/2/2 125/2/2
f 122/2/2 123/2/2 125/2/2
f 125/2/2 123/2/2 126/2/2
f 120/2/2 125/2/2 127/2/2
f 126/2/2 123/2/2 128/2/2
f 119/3/2 120/3/2 129/3/2
f 127/2/2 128/2/2 130/2/2
f 129/3/2 120/3/2 130/3/2
f 120/2/2 127/2/2 130/2/2
f 130/2/2 128/2/2 131/2/2
f 128/2/2 123/2/2 132/2/2
f 131/2/2 128/2/2 132/2/2
f 123/3/2 124/3/2 133/3/2
f 132/2/2 123/2/2 133/2/2
f 133/3/2 124/3/2 134/3/2
f 130/3/2 131/3/2 135/3/2
f 131/2/2 132/2/2 136/2/2
f 135/3/2 131/3/2 136/3/2
f 136/2/2 132/2/2 137/2/2
f 137/2/2 132/2/2 138/2/2
f 132/3/2 133/3/2 139/3/2
f 138/2/2 132/2/2 139/2/2
f 139/3/2 133/3/2 140/3/2
f 136/3/2 137/3/2 141/3/2
f 137/2/2 138/2/2 142/2/2
f 141/3/2 137/3/2 142/3/2
f 142/2/2 138/2/2 143/2/2
f 143/2/2 138/2/2 144/2/2
f 138/3/2 139/3/2 145/3/2
f 144/2/2 138/2/2 145/2/2
f 145/3/2 139/3/2 146/3/2
f 142/3/2 143/3/2 147/3/2
f 143/2/2 144/2/2 148/2/2
f 147/3/2 143/3/2 148/3/2
f 144/3/2 145/3/2 149/3/2
f 148/2/2 144/2/2 149/2/2
f 149/3/2 145/3/2 150/3/2
f 148/3/2 149/3/2 151/3/2
f 151/3/2 149/3/2 152/3/2
f 153/3/2 154/3/2 156/3/2
f 156/3/2 154/3/2 157/3/2
f 155/3/2 156/3/2 160/3/2
f 156/2/2 157/2/2 161/2/2
f 160/3/2 156/3/2 161/3/2
f 157/3/2 158/3/2 162/3/2
f 161/2/2 157/2/2 162/2/2
f 162/3/2 158/3/2 163/3/2
f 159/3/2 160/3/2 166/3/2
f 160/2/2 161/2/2 167/2/2
f 161/2/2 162/2/2 167/2/2
f 166/3/2 160/3/2 167/3/2
f 162/2/2 163/2/2 167/2/2
f 163/3/2 164/3/2 168/3/2
f 167/2/2 163/2/2 168/2/2
f 168/3/2 164/3/2 169/3/2
f 165/3/2 166/3/2 172/3/2
f 166/2/2 167/2/2 173/2/2
f 167/2/2 168/2/2 173/2/2
f 172/3/2 166/3/2 173/3/2
f 168/2/2 169/2/2 173/2/2
f 169/3/2 170/3/2 174/3/2
f 173/2/2 169/2/2 174/2/2
f 174/3/2 170/3/2 175/3/2
f 171/3/2 172/3/2 177/3/2
f 172/2/2 173/2/2 178/2/2
f 177/3/2 172/3/2 178/3/2
f 173/2/2 174/2/2 178/2/2
f 174/2/2 175/2/2 178/2/2
f 178/2/2 175/2/2 179/2/2
f 179/2/2 175/2/2 180/2/2
f 175/3/2 176/3/2 181/3/2
f 180/2/2 175/2/2 181/2/2
f 181/3/2 176/3/2 182/3/2
f 178/3/2 179/3/2 183/3/2
f 179/2/2 180/2/2 184/2/2
f 183/3/2 179/3/2 184/3/2
f 184/2/2 180/2/2 185/2/2
f 185/2/2 180/2/2 186/2/2
f 180/3/2 181/3/2 187/3/2
f 186/2/2 180/2/2 187/2/2
f 187/3/2 181/3/2 188/3/2
f 184/3/2 185/3/2 189/3/2
f 185/2/2 186/2/2 190/2/2
f 189/3/2 185/3/2 190/3/2
f 190/2/2 186/2/2 191/2/2
f 191/2/2 186/2/2 192/2/2
f 186/3/2 187/3/2 193/3/2
f 192/2/2 186/2/2 193/2/2
f 193/3/2 187/3/2 194/3/2
f 190/3/2 191/3/2 195/3/2
f 191/2/2 192/2/2 196/2/2
f 195/3/2 191/3/2 196/3/2
f 192/3/2 193/3/2 197/3/2
f 196/2/2 192/2/2 197/2/2
f 197/3/2 193/3/2 198/3/2
f 196/3/2 197/3/2 199/3/2
f 199/3/2 197/3/2 200/3/2
f 203/3/3 202/3/3 201/3/3
f 204/3/3 202/3/3 203/3/3
f 207/3/3 206/3/3 205/3/3
f 208/3/3 206/3/3 207/3/3
f 213/3/3 210/3/3 209/3/3
f 214/3/3 210/3/3 213/3/3
f 215/3/3 212/3/3 211/3/3
f 216/3/3 212/3/3 215/3/3
f 221/3/3 218/3/3 217/3/3
f 222/3/3 218/3/3 221/3/3
f 223/3/3 220/3/3 219/3/3
f 224/3/3 220/3/3 223/3/3
f 229/3/3 226/3/3 225/3/3
f 230/3/3 226/3/3 229/3/3
f 231/3/3 228/3/3 227/3/3
f 232/3/3 228/3/3 231/3/3
f 237/3/3 234/3/3 233/3/3
f 238/3/3 234/3/3 237/3/3
f 239/3/3 236/3/3 235/3/3
f 240/3/3 236/3/3 239/3/3
f 245/3/3 242/3/3 241/3/3
f 246/3/3 242/3/3 245/3/3
f 247/3/3 244/3/3 243/3/3
f 248/3/3 244/3/3 247/3/3
f 253/3/3 250/3/3 249/3/3
f 254/3/3 250/3/3 253/3/3
f 255/3/3 252/3/3 251/3/3
f 256/3/3 252/3/3 255/3/3
f 261/3/3 258/3/3 257/3/3
f 262/3/3 258/3/3 261/3/3
f 263/3/3 260/3/3 259/3/3
f 264/3/3 260/3/3 263/3/3
f 269/3/3 266/3/3 265/3/3
f 270/3/3 266/3/3 269/3/3
f 271/3/3 268/3/3 267/3/3
f 272/3/3 268/3/3 271/3/3
f 275/1/3 274/1/3 273/1/3
f 276/1/3 274/1/3 275/1/3
f 277/3/4 278/3/4 281/3/4
f 281/3/4 278/3/4 282/3/4
f 279/3/4 280/3/4 285/3/4
f 285/3/4 280/3/4 286/3/4
f 283/1/4 284/1/4 289/1/4
f 289/1/4 284/1/4 290/1/4
f 287/3/4 288/3/4 293/3/4
f 293/3/4 288/3/4 294/3/4
f 291/3/4 292/3/4 295/3/4
f 295/3/4 292/3/4 296/3/4
f 297/3/4 298/3/4 301/3/4
f 301/3/4 298/3/4 302/3/4
f 299/3/4 300/3/4 303/3/4
f 303/3/4 300/3/4 304/3/4
f 305/3/4 306/3/4 309/3/4
f 309/3/4 306/3/4 310/3/4
f 307/3/4 308/3/4 311/3/4
f 311/3/4 308/3/4 312/3/4
f 313/3/4 314/3/4 317/3/4
f 317/3/4 314/3/4 318/3/4
f 315/3/4 316/3/4 319/3/4
f 319/3/4 316/3/4 320/3/4
f 321/3/4 322/3/4 325/3/4
f 325/3/4 322/3/4 326/3/4
f 323/3/4 324/3/4 327/3/4
f 327/3/4 324/3/4 328/3/4
f 329/3/4 330/3/4 333/3/4
f 333/3/4 330/3/4 334/3/4
f 331/3/4 332/3/4 335/3/4
f 335/3/4 332/3/4 336/3/4
f 337/3/4 338/3/4 341/3/4
f 341/3/4 338/3/4 342/3/4
f 339/3/4 340/3/4 343/3/4
f 343/3/4 340/3/4 344/3/4
f 345/3/4 346/3/4 347/3/4
f 347/3/4 346/3/4 348/3/4
f 349/3/4 350/3/4 351/3/4
f 351/3/4 350/3/4 352/3/4
f 357/3/5 354/3/5 353/3/5
f 358/3/5 354/3/5 357/3/5
f 359/3/5 356/3/5 355/3/5
f 360/3/5 356/3/5 359/3/5
f 365/3/5 362/3/5 361/3/5
f 366/3/5 362/3/5 365/3/5
f 367/3/5 364/3/5 363/3/5
f 368/3/5 364/3/5 367/3/5
f 373/3/5 370/3/5 369/3/5
f 374/3/5 370/3/5 373/3/5
f 375/3/5 372/3/5 371/3/5
f 376/3/5 372/3/5 375/3/5
f 381/3/5 378/3/5 377/3/5
f 382/3/5 378/3/5 381/3/5
f 383/3/5 380/3/5 379/3/5
f 384/3/5 380/3/5 383/3/5
f 389/3/5 386/3/5 385/3/5
f 390/3/5 386/3/5 389/3/5
f 391/3/5 388/3/5 387/3/5
f 392/3/5 388/3/5 391/3/5
f 397/3/5 394/3/5 393/3/5
f 398/3/5 394/3/5 397/3/5
f 399/3/5 396/3/5 395/3/5
f 400/3/5 396/3/5 399/3/5
f 405/3/5 402/3/5 401/3/5
f 406/3/5 402/3/5 405/3/5
f 407/3/5 404/3/5 403/3/5
f 408/3/5 404/3/5 407/3/5
f 413/3/5 410/3/5 409/3/5
f 414/3/5 410/3/5 413/3/5
f 415/3/5 412/3/5 411/3/5
f 416/3/5 412/3/5 415/3/5
f 421/3/5 418/3/5 417/3/5
f 422/3/5 418/3/5 421/3/5
f 423/3/5 420/3/5 419/3/5
f 424/3/5 420/3/5 423/3/5
f 427/1/5 426/1/5 425/1/5
f 428/1/5 426/1/5 427/1/5
f 429/1/6 430/1/6 431/1/6
f 431/1/6 430/1/6 432/1/6
f 433/3/6 434/3/6 437/3/6
f 437/3/6 434/3/6 438/3/6
f 435/3/6 436/3/6 439/3/6
f 439/3/6 436/3/6 440/3/6
f 441/3/6 442/3/6 445/3/6
f 445/3/6 442/3/6 446/3/6
f 443/3/6 444/3/6 447/3/6
f 447/3/6 444/3/6 448/3/6
f 449/3/6 450/3/6 453/3/6
f 453/3/6 450/3/6 454/3/6
f 451/3/6 452/3/6 455/3/6
f 455/3/6 452/3/6 456/3/6
f 457/3/6 458/3/6 461/3/6
f 461/3/6 458/3/6 462/3/6
f 459/3/6 460/3/6 463/3/6
f 463/3/6 460/3/6 464/3/6
f 465/3/6 466/3/6 469/3/6
f 469/3/6 466/3/6 470/3/6
f 467/3/6 468/3/6 471/3/6
f 471/3/6 468/3/6 472/3/6
f 473/3/6 474/3/6 477/3/6
f 477/3/6 474/3/6 478/3/6
f 475/3/6 476/3/6 479/3/6
f 479/3/6 476/3/6 480/3/6
f 481/3/6 482/3/6 485/3/6
f 485/3/6 482/3/6 486/3/6
f 483/3/6 484/3/6 487/3/6
f 487/3/6 484/3/6 488/3/6
f 489/3/6 490/3/6 493/3/6
f 493/3/6 490/3/6 494/3/6
f 491/3/6 492/3/6 495/3/6
f 495/3/6 492/3/6 496/3/6
f 497/3/6 498/3/6 501/3/6
f 501/3/6 498/3/6 502/3/6
f 499/3/6 500/3/6 503/3/6
f 503/3/6 500/3/6 504/3/6
