# MagicaVoxel @ Ephtracy

# group
o 

# material
mtllib Canon_Wheel2.mtl
usemtl palette

# normals
vn -1 0 0
vn 1 0 0
vn 0 0 1
vn 0 0 -1
vn 0 -1 0
vn 0 1 0

# texcoords
vt 0.259766 0.5
vt 0.626953 0.5
vt 0.751953 0.5

# verts
v -0.8 0.2 0.0999999
v -0.8 0.2 -0.2
v -0.8 0.3 0.3
v -0.8 0.3 0.0999999
v -0.8 0.3 -0.2
v -0.8 0.3 -0.4
v -0.8 0.4 0.4
v -0.8 0.4 0.3
v -0.8 0.4 0.0999999
v -0.8 0.4 -0.2
v -0.8 0.4 -0.4
v -0.8 0.4 -0.5
v -0.8 0.6 0.5
v -0.8 0.6 0.4
v -0.8 0.6 0.3
v -0.8 0.6 -0.4
v -0.8 0.6 -0.5
v -0.8 0.6 -0.6
v -0.8 0.9 0.5
v -0.8 0.9 0.4
v -0.8 0.9 0.3
v -0.8 0.9 -0.4
v -0.8 0.9 -0.5
v -0.8 0.9 -0.6
v -0.8 1.1 0.4
v -0.8 1.1 0.3
v -0.8 1.1 0.0999999
v -0.8 1.1 -0.2
v -0.8 1.1 -0.4
v -0.8 1.1 -0.5
v -0.8 1.2 0.3
v -0.8 1.2 0.0999999
v -0.8 1.2 -0.2
v -0.8 1.2 -0.4
v -0.8 1.3 0.0999999
v -0.8 1.3 -0.2
v 0.7 0.2 0.0999999
v 0.7 0.2 -0.2
v 0.7 0.3 0.3
v 0.7 0.3 0.0999999
v 0.7 0.3 -0.2
v 0.7 0.3 -0.4
v 0.7 0.4 0.4
v 0.7 0.4 0.3
v 0.7 0.4 0.0999999
v 0.7 0.4 -0.2
v 0.7 0.4 -0.4
v 0.7 0.4 -0.5
v 0.7 0.6 0.5
v 0.7 0.6 0.4
v 0.7 0.6 0.3
v 0.7 0.6 -0.4
v 0.7 0.6 -0.5
v 0.7 0.6 -0.6
v 0.7 0.7 -0.1
v 0.7 0.7 -0.2
v 0.7 0.8 -0.1
v 0.7 0.8 -0.2
v 0.7 0.9 0.5
v 0.7 0.9 0.4
v 0.7 0.9 0.3
v 0.7 0.9 -0.5
v 0.7 0.9 -0.6
v 0.7 1 -0.4
v 0.7 1 -0.5
v 0.7 1.1 0.4
v 0.7 1.1 0.3
v 0.7 1.1 0.0999999
v 0.7 1.1 -0.2
v 0.7 1.1 -0.4
v 0.7 1.1 -0.5
v 0.7 1.2 0.3
v 0.7 1.2 0.0999999
v 0.7 1.2 -0.2
v 0.7 1.2 -0.4
v 0.7 1.3 0.0999999
v 0.7 1.3 -0.2
v -0.6 0.2 0.0999999
v -0.6 0.2 -0.2
v -0.6 0.3 0.3
v -0.6 0.3 0.0999999
v -0.6 0.3 -0.2
v -0.6 0.3 -0.4
v -0.6 0.4 0.4
v -0.6 0.4 0.3
v -0.6 0.4 0.0999999
v -0.6 0.4 -0.2
v -0.6 0.4 -0.4
v -0.6 0.4 -0.5
v -0.6 0.5 -0.4
v -0.6 0.5 -0.5
v -0.6 0.6 0.5
v -0.6 0.6 0.4
v -0.6 0.6 0.3
v -0.6 0.6 -0.5
v -0.6 0.6 -0.6
v -0.6 0.7 -0.1
v -0.6 0.7 -0.2
v -0.6 0.8 -0.1
v -0.6 0.8 -0.2
v -0.6 0.9 0.5
v -0.6 0.9 0.4
v -0.6 0.9 0.3
v -0.6 0.9 -0.4
v -0.6 0.9 -0.5
v -0.6 0.9 -0.6
v -0.6 1.1 0.4
v -0.6 1.1 0.3
v -0.6 1.1 0.0999999
v -0.6 1.1 -0.2
v -0.6 1.1 -0.4
v -0.6 1.1 -0.5
v -0.6 1.2 0.3
v -0.6 1.2 0.0999999
v -0.6 1.2 -0.2
v -0.6 1.2 -0.4
v -0.6 1.3 0.0999999
v -0.6 1.3 -0.2
v 0.9 0.2 0.0999999
v 0.9 0.2 -0.2
v 0.9 0.3 0.3
v 0.9 0.3 0.0999999
v 0.9 0.3 -0.2
v 0.9 0.3 -0.4
v 0.9 0.4 0.4
v 0.9 0.4 0.3
v 0.9 0.4 0.0999999
v 0.9 0.4 -0.2
v 0.9 0.4 -0.4
v 0.9 0.4 -0.5
v 0.9 0.6 0.5
v 0.9 0.6 0.4
v 0.9 0.6 0.3
v 0.9 0.6 -0.4
v 0.9 0.6 -0.5
v 0.9 0.6 -0.6
v 0.9 0.9 0.5
v 0.9 0.9 0.4
v 0.9 0.9 0.3
v 0.9 0.9 -0.4
v 0.9 0.9 -0.5
v 0.9 0.9 -0.6
v 0.9 1.1 0.4
v 0.9 1.1 0.3
v 0.9 1.1 0.0999999
v 0.9 1.1 -0.2
v 0.9 1.1 -0.4
v 0.9 1.1 -0.5
v 0.9 1.2 0.3
v 0.9 1.2 0.0999999
v 0.9 1.2 -0.2
v 0.9 1.2 -0.4
v 0.9 1.3 0.0999999
v 0.9 1.3 -0.2
v -0.8 0.6 0.5
v -0.8 0.9 0.5
v -0.6 0.6 0.5
v -0.6 0.9 0.5
v 0.7 0.6 0.5
v 0.7 0.9 0.5
v 0.9 0.6 0.5
v 0.9 0.9 0.5
v -0.8 0.4 0.4
v -0.8 0.6 0.4
v -0.8 0.9 0.4
v -0.8 1.1 0.4
v -0.6 0.4 0.4
v -0.6 0.6 0.4
v -0.6 0.9 0.4
v -0.6 1.1 0.4
v 0.7 0.4 0.4
v 0.7 0.6 0.4
v 0.7 0.9 0.4
v 0.7 1.1 0.4
v 0.9 0.4 0.4
v 0.9 0.6 0.4
v 0.9 0.9 0.4
v 0.9 1.1 0.4
v -0.8 0.3 0.3
v -0.8 0.4 0.3
v -0.8 1.1 0.3
v -0.8 1.2 0.3
v -0.6 0.3 0.3
v -0.6 0.4 0.3
v -0.6 1.1 0.3
v -0.6 1.2 0.3
v 0.7 0.3 0.3
v 0.7 0.4 0.3
v 0.7 1.1 0.3
v 0.7 1.2 0.3
v 0.9 0.3 0.3
v 0.9 0.4 0.3
v 0.9 1.1 0.3
v 0.9 1.2 0.3
v -0.8 0.2 0.0999999
v -0.8 0.3 0.0999999
v -0.8 1.2 0.0999999
v -0.8 1.3 0.0999999
v -0.6 0.2 0.0999999
v -0.6 0.3 0.0999999
v -0.6 1.2 0.0999999
v -0.6 1.3 0.0999999
v 0.7 0.2 0.0999999
v 0.7 0.3 0.0999999
v 0.7 1.2 0.0999999
v 0.7 1.3 0.0999999
v 0.9 0.2 0.0999999
v 0.9 0.3 0.0999999
v 0.9 1.2 0.0999999
v 0.9 1.3 0.0999999
v -0.6 0.7 -0.1
v -0.6 0.8 -0.1
v 0.7 0.7 -0.1
v 0.7 0.8 -0.1
v -0.8 0.2 -0.2
v -0.8 0.3 -0.2
v -0.8 1.2 -0.2
v -0.8 1.3 -0.2
v -0.6 0.2 -0.2
v -0.6 0.3 -0.2
v -0.6 0.7 -0.2
v -0.6 0.8 -0.2
v -0.6 1.2 -0.2
v -0.6 1.3 -0.2
v 0.7 0.2 -0.2
v 0.7 0.3 -0.2
v 0.7 0.7 -0.2
v 0.7 0.8 -0.2
v 0.7 1.2 -0.2
v 0.7 1.3 -0.2
v 0.9 0.2 -0.2
v 0.9 0.3 -0.2
v 0.9 1.2 -0.2
v 0.9 1.3 -0.2
v -0.8 0.3 -0.4
v -0.8 0.4 -0.4
v -0.8 1.1 -0.4
v -0.8 1.2 -0.4
v -0.6 0.3 -0.4
v -0.6 0.4 -0.4
v -0.6 1.1 -0.4
v -0.6 1.2 -0.4
v 0.7 0.3 -0.4
v 0.7 0.4 -0.4
v 0.7 1.1 -0.4
v 0.7 1.2 -0.4
v 0.9 0.3 -0.4
v 0.9 0.4 -0.4
v 0.9 1.1 -0.4
v 0.9 1.2 -0.4
v -0.8 0.4 -0.5
v -0.8 0.6 -0.5
v -0.8 0.9 -0.5
v -0.8 1.1 -0.5
v -0.7 0.5 -0.5
v -0.7 0.6 -0.5
v -0.6 0.4 -0.5
v -0.6 0.5 -0.5
v -0.6 0.6 -0.5
v -0.6 0.9 -0.5
v -0.6 1.1 -0.5
v 0.7 0.4 -0.5
v 0.7 0.6 -0.5
v 0.7 0.9 -0.5
v 0.7 1 -0.5
v 0.7 1.1 -0.5
v 0.8 0.9 -0.5
v 0.8 1 -0.5
v 0.9 0.4 -0.5
v 0.9 0.6 -0.5
v 0.9 0.9 -0.5
v 0.9 1.1 -0.5
v -0.8 0.6 -0.6
v -0.8 0.9 -0.6
v -0.6 0.6 -0.6
v -0.6 0.9 -0.6
v 0.7 0.6 -0.6
v 0.7 0.9 -0.6
v 0.9 0.6 -0.6
v 0.9 0.9 -0.6
v -0.8 0.2 0.0999999
v -0.6 0.2 0.0999999
v 0.7 0.2 0.0999999
v 0.9 0.2 0.0999999
v -0.8 0.2 -0.2
v -0.6 0.2 -0.2
v 0.7 0.2 -0.2
v 0.9 0.2 -0.2
v -0.8 0.3 0.3
v -0.6 0.3 0.3
v 0.7 0.3 0.3
v 0.9 0.3 0.3
v -0.8 0.3 0.0999999
v -0.6 0.3 0.0999999
v 0.7 0.3 0.0999999
v 0.9 0.3 0.0999999
v -0.8 0.3 -0.2
v -0.6 0.3 -0.2
v 0.7 0.3 -0.2
v 0.9 0.3 -0.2
v -0.8 0.3 -0.4
v -0.6 0.3 -0.4
v 0.7 0.3 -0.4
v 0.9 0.3 -0.4
v -0.8 0.4 0.4
v -0.6 0.4 0.4
v 0.7 0.4 0.4
v 0.9 0.4 0.4
v -0.8 0.4 0.3
v -0.6 0.4 0.3
v 0.7 0.4 0.3
v 0.9 0.4 0.3
v -0.8 0.4 -0.4
v -0.6 0.4 -0.4
v 0.7 0.4 -0.4
v 0.9 0.4 -0.4
v -0.8 0.4 -0.5
v -0.6 0.4 -0.5
v 0.7 0.4 -0.5
v 0.9 0.4 -0.5
v -0.8 0.6 0.5
v -0.6 0.6 0.5
v 0.7 0.6 0.5
v 0.9 0.6 0.5
v -0.8 0.6 0.4
v -0.6 0.6 0.4
v 0.7 0.6 0.4
v 0.9 0.6 0.4
v -0.8 0.6 -0.5
v -0.7 0.6 -0.5
v -0.6 0.6 -0.5
v 0.7 0.6 -0.5
v 0.9 0.6 -0.5
v -0.8 0.6 -0.6
v -0.6 0.6 -0.6
v 0.7 0.6 -0.6
v 0.9 0.6 -0.6
v -0.6 0.7 -0.1
v 0.7 0.7 -0.1
v -0.6 0.7 -0.2
v 0.7 0.7 -0.2
v -0.6 0.8 -0.1
v 0.7 0.8 -0.1
v -0.6 0.8 -0.2
v 0.7 0.8 -0.2
v -0.8 0.9 0.5
v -0.6 0.9 0.5
v 0.7 0.9 0.5
v 0.9 0.9 0.5
v -0.8 0.9 0.4
v -0.6 0.9 0.4
v 0.7 0.9 0.4
v 0.9 0.9 0.4
v -0.8 0.9 -0.5
v -0.6 0.9 -0.5
v 0.7 0.9 -0.5
v 0.8 0.9 -0.5
v 0.9 0.9 -0.5
v -0.8 0.9 -0.6
v -0.6 0.9 -0.6
v 0.7 0.9 -0.6
v 0.9 0.9 -0.6
v -0.8 1.1 0.4
v -0.6 1.1 0.4
v 0.7 1.1 0.4
v 0.9 1.1 0.4
v -0.8 1.1 0.3
v -0.6 1.1 0.3
v 0.7 1.1 0.3
v 0.9 1.1 0.3
v -0.8 1.1 -0.4
v -0.6 1.1 -0.4
v 0.7 1.1 -0.4
v 0.9 1.1 -0.4
v -0.8 1.1 -0.5
v -0.6 1.1 -0.5
v 0.7 1.1 -0.5
v 0.9 1.1 -0.5
v -0.8 1.2 0.3
v -0.6 1.2 0.3
v 0.7 1.2 0.3
v 0.9 1.2 0.3
v -0.8 1.2 0.0999999
v -0.6 1.2 0.0999999
v 0.7 1.2 0.0999999
v 0.9 1.2 0.0999999
v -0.8 1.2 -0.2
v -0.6 1.2 -0.2
v 0.7 1.2 -0.2
v 0.9 1.2 -0.2
v -0.8 1.2 -0.4
v -0.6 1.2 -0.4
v 0.7 1.2 -0.4
v 0.9 1.2 -0.4
v -0.8 1.3 0.0999999
v -0.6 1.3 0.0999999
v 0.7 1.3 0.0999999
v 0.9 1.3 0.0999999
v -0.8 1.3 -0.2
v -0.6 1.3 -0.2
v 0.7 1.3 -0.2
v 0.9 1.3 -0.2

# faces
f 4/3/1 2/3/1 1/3/1
f 5/3/1 2/3/1 4/3/1
f 8/3/1 4/3/1 3/3/1
f 9/2/1 5/2/1 4/2/1
f 9/3/1 4/3/1 8/3/1
f 10/3/1 6/3/1 5/3/1
f 10/2/1 5/2/1 9/2/1
f 11/3/1 6/3/1 10/3/1
f 14/3/1 8/3/1 7/3/1
f 15/2/1 9/2/1 8/2/1
f 15/2/1 10/2/1 9/2/1
f 15/3/1 8/3/1 14/3/1
f 15/2/1 11/2/1 10/2/1
f 16/3/1 12/3/1 11/3/1
f 16/2/1 11/2/1 15/2/1
f 17/3/1 12/3/1 16/3/1
f 19/3/1 14/3/1 13/3/1
f 20/2/1 15/2/1 14/2/1
f 20/3/1 14/3/1 19/3/1
f 20/2/1 16/2/1 15/2/1
f 20/2/1 17/2/1 16/2/1
f 21/2/1 17/2/1 20/2/1
f 22/2/1 17/2/1 21/2/1
f 23/3/1 18/3/1 17/3/1
f 23/2/1 17/2/1 22/2/1
f 24/3/1 18/3/1 23/3/1
f 25/3/1 21/3/1 20/3/1
f 26/2/1 22/2/1 21/2/1
f 26/3/1 21/3/1 25/3/1
f 27/2/1 22/2/1 26/2/1
f 28/2/1 22/2/1 27/2/1
f 29/3/1 23/3/1 22/3/1
f 29/2/1 22/2/1 28/2/1
f 30/3/1 23/3/1 29/3/1
f 31/3/1 27/3/1 26/3/1
f 32/2/1 28/2/1 27/2/1
f 32/3/1 27/3/1 31/3/1
f 33/3/1 29/3/1 28/3/1
f 33/2/1 28/2/1 32/2/1
f 34/3/1 29/3/1 33/3/1
f 35/3/1 33/3/1 32/3/1
f 36/3/1 33/3/1 35/3/1
f 40/3/1 38/3/1 37/3/1
f 41/3/1 38/3/1 40/3/1
f 44/3/1 40/3/1 39/3/1
f 45/2/1 41/2/1 40/2/1
f 45/3/1 40/3/1 44/3/1
f 46/3/1 42/3/1 41/3/1
f 46/2/1 41/2/1 45/2/1
f 47/3/1 42/3/1 46/3/1
f 50/3/1 44/3/1 43/3/1
f 51/2/1 45/2/1 44/2/1
f 51/2/1 46/2/1 45/2/1
f 51/3/1 44/3/1 50/3/1
f 51/2/1 47/2/1 46/2/1
f 52/3/1 48/3/1 47/3/1
f 52/2/1 47/2/1 51/2/1
f 53/3/1 48/3/1 52/3/1
f 55/2/1 51/2/1 50/2/1
f 55/2/1 52/2/1 51/2/1
f 55/2/1 53/2/1 52/2/1
f 56/2/1 53/2/1 55/2/1
f 57/2/1 55/2/1 50/2/1
f 58/2/1 53/2/1 56/2/1
f 59/3/1 50/3/1 49/3/1
f 60/2/1 58/2/1 57/2/1
f 60/3/1 50/3/1 59/3/1
f 60/2/1 57/2/1 50/2/1
f 61/2/1 58/2/1 60/2/1
f 62/3/1 54/3/1 53/3/1
f 62/2/1 58/2/1 61/2/1
f 62/2/1 53/2/1 58/2/1
f 63/3/1 54/3/1 62/3/1
f 64/2/1 62/2/1 61/2/1
f 65/2/1 62/2/1 64/2/1
f 66/3/1 61/3/1 60/3/1
f 67/2/1 64/2/1 61/2/1
f 67/3/1 61/3/1 66/3/1
f 68/2/1 64/2/1 67/2/1
f 69/2/1 64/2/1 68/2/1
f 70/3/1 65/3/1 64/3/1
f 70/2/1 64/2/1 69/2/1
f 71/3/1 65/3/1 70/3/1
f 72/3/1 68/3/1 67/3/1
f 73/2/1 69/2/1 68/2/1
f 73/3/1 68/3/1 72/3/1
f 74/3/1 70/3/1 69/3/1
f 74/2/1 69/2/1 73/2/1
f 75/3/1 70/3/1 74/3/1
f 76/3/1 74/3/1 73/3/1
f 77/3/1 74/3/1 76/3/1
f 78/3/2 79/3/2 81/3/2
f 81/3/2 79/3/2 82/3/2
f 80/3/2 81/3/2 85/3/2
f 81/2/2 82/2/2 86/2/2
f 85/3/2 81/3/2 86/3/2
f 82/3/2 83/3/2 87/3/2
f 86/2/2 82/2/2 87/2/2
f 87/3/2 83/3/2 88/3/2
f 85/2/2 86/2/2 90/2/2
f 88/3/2 89/3/2 90/3/2
f 87/2/2 88/2/2 90/2/2
f 86/2/2 87/2/2 90/2/2
f 90/3/2 89/3/2 91/3/2
f 84/3/2 85/3/2 93/3/2
f 85/2/2 90/2/2 94/2/2
f 90/2/2 91/2/2 94/2/2
f 93/3/2 85/3/2 94/3/2
f 94/2/2 91/2/2 95/2/2
f 94/2/2 95/2/2 97/2/2
f 93/2/2 94/2/2 97/2/2
f 97/2/2 95/2/2 98/2/2
f 93/2/2 97/2/2 99/2/2
f 98/2/2 95/2/2 100/2/2
f 92/3/2 93/3/2 101/3/2
f 99/2/2 100/2/2 102/2/2
f 101/3/2 93/3/2 102/3/2
f 93/2/2 99/2/2 102/2/2
f 102/2/2 100/2/2 103/2/2
f 100/2/2 95/2/2 104/2/2
f 103/2/2 100/2/2 104/2/2
f 95/3/2 96/3/2 105/3/2
f 104/2/2 95/2/2 105/2/2
f 105/3/2 96/3/2 106/3/2
f 102/3/2 103/3/2 107/3/2
f 103/2/2 104/2/2 108/2/2
f 107/3/2 103/3/2 108/3/2
f 108/2/2 104/2/2 109/2/2
f 109/2/2 104/2/2 110/2/2
f 104/3/2 105/3/2 111/3/2
f 110/2/2 104/2/2 111/2/2
f 111/3/2 105/3/2 112/3/2
f 108/3/2 109/3/2 113/3/2
f 109/2/2 110/2/2 114/2/2
f 113/3/2 109/3/2 114/3/2
f 110/3/2 111/3/2 115/3/2
f 114/2/2 110/2/2 115/2/2
f 115/3/2 111/3/2 116/3/2
f 114/3/2 115/3/2 117/3/2
f 117/3/2 115/3/2 118/3/2
f 119/3/2 120/3/2 122/3/2
f 122/3/2 120/3/2 123/3/2
f 121/3/2 122/3/2 126/3/2
f 122/2/2 123/2/2 127/2/2
f 126/3/2 122/3/2 127/3/2
f 123/3/2 124/3/2 128/3/2
f 127/2/2 123/2/2 128/2/2
f 128/3/2 124/3/2 129/3/2
f 125/3/2 126/3/2 132/3/2
f 126/2/2 127/2/2 133/2/2
f 127/2/2 128/2/2 133/2/2
f 132/3/2 126/3/2 133/3/2
f 128/2/2 129/2/2 133/2/2
f 129/3/2 130/3/2 134/3/2
f 133/2/2 129/2/2 134/2/2
f 134/3/2 130/3/2 135/3/2
f 131/3/2 132/3/2 137/3/2
f 132/2/2 133/2/2 138/2/2
f 137/3/2 132/3/2 138/3/2
f 133/2/2 134/2/2 138/2/2
f 134/2/2 135/2/2 138/2/2
f 138/2/2 135/2/2 139/2/2
f 139/2/2 135/2/2 140/2/2
f 135/3/2 136/3/2 141/3/2
f 140/2/2 135/2/2 141/2/2
f 141/3/2 136/3/2 142/3/2
f 138/3/2 139/3/2 143/3/2
f 139/2/2 140/2/2 144/2/2
f 143/3/2 139/3/2 144/3/2
f 144/2/2 140/2/2 145/2/2
f 145/2/2 140/2/2 146/2/2
f 140/3/2 141/3/2 147/3/2
f 146/2/2 140/2/2 147/2/2
f 147/3/2 141/3/2 148/3/2
f 144/3/2 145/3/2 149/3/2
f 145/2/2 146/2/2 150/2/2
f 149/3/2 145/3/2 150/3/2
f 146/3/2 147/3/2 151/3/2
f 150/2/2 146/2/2 151/2/2
f 151/3/2 147/3/2 152/3/2
f 150/3/2 151/3/2 153/3/2
f 153/3/2 151/3/2 154/3/2
f 157/3/3 156/3/3 155/3/3
f 158/3/3 156/3/3 157/3/3
f 161/3/3 160/3/3 159/3/3
f 162/3/3 160/3/3 161/3/3
f 167/3/3 164/3/3 163/3/3
f 168/3/3 164/3/3 167/3/3
f 169/3/3 166/3/3 165/3/3
f 170/3/3 166/3/3 169/3/3
f 175/3/3 172/3/3 171/3/3
f 176/3/3 172/3/3 175/3/3
f 177/3/3 174/3/3 173/3/3
f 178/3/3 174/3/3 177/3/3
f 183/3/3 180/3/3 179/3/3
f 184/3/3 180/3/3 183/3/3
f 185/3/3 182/3/3 181/3/3
f 186/3/3 182/3/3 185/3/3
f 191/3/3 188/3/3 187/3/3
f 192/3/3 188/3/3 191/3/3
f 193/3/3 190/3/3 189/3/3
f 194/3/3 190/3/3 193/3/3
f 199/3/3 196/3/3 195/3/3
f 200/3/3 196/3/3 199/3/3
f 201/3/3 198/3/3 197/3/3
f 202/3/3 198/3/3 201/3/3
f 207/3/3 204/3/3 203/3/3
f 208/3/3 204/3/3 207/3/3
f 209/3/3 206/3/3 205/3/3
f 210/3/3 206/3/3 209/3/3
f 213/1/3 212/1/3 211/1/3
f 214/1/3 212/1/3 213/1/3
f 215/3/4 216/3/4 219/3/4
f 219/3/4 216/3/4 220/3/4
f 217/3/4 218/3/4 223/3/4
f 223/3/4 218/3/4 224/3/4
f 221/1/4 222/1/4 227/1/4
f 227/1/4 222/1/4 228/1/4
f 225/3/4 226/3/4 231/3/4
f 231/3/4 226/3/4 232/3/4
f 229/3/4 230/3/4 233/3/4
f 233/3/4 230/3/4 234/3/4
f 235/3/4 236/3/4 239/3/4
f 239/3/4 236/3/4 240/3/4
f 237/3/4 238/3/4 241/3/4
f 241/3/4 238/3/4 242/3/4
f 243/3/4 244/3/4 247/3/4
f 247/3/4 244/3/4 248/3/4
f 245/3/4 246/3/4 249/3/4
f 249/3/4 246/3/4 250/3/4
f 251/3/4 252/3/4 255/3/4
f 255/3/4 252/3/4 256/3/4
f 251/3/4 255/3/4 257/3/4
f 255/2/4 256/2/4 258/2/4
f 257/3/4 255/3/4 258/3/4
f 258/2/4 256/2/4 259/2/4
f 253/3/4 254/3/4 260/3/4
f 260/3/4 254/3/4 261/3/4
f 264/2/4 265/2/4 267/2/4
f 265/3/4 266/3/4 268/3/4
f 267/2/4 265/2/4 268/2/4
f 262/3/4 263/3/4 269/3/4
f 269/3/4 263/3/4 270/3/4
f 267/3/4 268/3/4 271/3/4
f 268/3/4 266/3/4 272/3/4
f 271/3/4 268/3/4 272/3/4
f 273/3/4 274/3/4 275/3/4
f 275/3/4 274/3/4 276/3/4
f 277/3/4 278/3/4 279/3/4
f 279/3/4 278/3/4 280/3/4
f 285/3/5 282/3/5 281/3/5
f 286/3/5 282/3/5 285/3/5
f 287/3/5 284/3/5 283/3/5
f 288/3/5 284/3/5 287/3/5
f 293/3/5 290/3/5 289/3/5
f 294/3/5 290/3/5 293/3/5
f 295/3/5 292/3/5 291/3/5
f 296/3/5 292/3/5 295/3/5
f 301/3/5 298/3/5 297/3/5
f 302/3/5 298/3/5 301/3/5
f 303/3/5 300/3/5 299/3/5
f 304/3/5 300/3/5 303/3/5
f 309/3/5 306/3/5 305/3/5
f 310/3/5 306/3/5 309/3/5
f 311/3/5 308/3/5 307/3/5
f 312/3/5 308/3/5 311/3/5
f 317/3/5 314/3/5 313/3/5
f 318/3/5 314/3/5 317/3/5
f 319/3/5 316/3/5 315/3/5
f 320/3/5 316/3/5 319/3/5
f 325/3/5 322/3/5 321/3/5
f 326/3/5 322/3/5 325/3/5
f 327/3/5 324/3/5 323/3/5
f 328/3/5 324/3/5 327/3/5
f 334/3/5 330/3/5 329/3/5
f 334/3/5 331/3/5 330/3/5
f 335/3/5 331/3/5 334/3/5
f 336/3/5 333/3/5 332/3/5
f 337/3/5 333/3/5 336/3/5
f 340/1/5 339/1/5 338/1/5
f 341/1/5 339/1/5 340/1/5
f 342/1/6 343/1/6 344/1/6
f 344/1/6 343/1/6 345/1/6
f 346/3/6 347/3/6 350/3/6
f 350/3/6 347/3/6 351/3/6
f 348/3/6 349/3/6 352/3/6
f 352/3/6 349/3/6 353/3/6
f 354/3/6 355/3/6 359/3/6
f 359/3/6 355/3/6 360/3/6
f 357/3/6 358/3/6 361/3/6
f 356/3/6 357/3/6 361/3/6
f 361/3/6 358/3/6 362/3/6
f 363/3/6 364/3/6 367/3/6
f 367/3/6 364/3/6 368/3/6
f 365/3/6 366/3/6 369/3/6
f 369/3/6 366/3/6 370/3/6
f 371/3/6 372/3/6 375/3/6
f 375/3/6 372/3/6 376/3/6
f 373/3/6 374/3/6 377/3/6
f 377/3/6 374/3/6 378/3/6
f 379/3/6 380/3/6 383/3/6
f 383/3/6 380/3/6 384/3/6
f 381/3/6 382/3/6 385/3/6
f 385/3/6 382/3/6 386/3/6
f 387/3/6 388/3/6 391/3/6
f 391/3/6 388/3/6 392/3/6
f 389/3/6 390/3/6 393/3/6
f 393/3/6 390/3/6 394/3/6
f 395/3/6 396/3/6 399/3/6
f 399/3/6 396/3/6 400/3/6
f 397/3/6 398/3/6 401/3/6
f 401/3/6 398/3/6 402/3/6
