# MagicaVoxel @ Ephtracy

# group
o 

# material
mtllib carot.mtl
usemtl palette

# normals
vn -1 0 0
vn 1 0 0
vn 0 0 1
vn 0 0 -1
vn 0 -1 0
vn 0 1 0

# texcoords
vt 0.103516 0.5
vt 0.197266 0.5
vt 0.220703 0.5
vt 0.474609 0.5
vt 0.478516 0.5
vt 0.482422 0.5

# verts
v -0.6 0.2 0.2
v -0.6 0.2 -0.2
v -0.6 0.5 0.0999998
v -0.6 0.5 -0.1
v -0.6 0.6 0.0999998
v -0.6 0.6 -0.1
v -0.6 0.8 0.2
v -0.6 0.8 -1.49012e-007
v -0.6 0.9 0.2
v -0.6 0.9 -1.49012e-007
v -0.6 1.1 0.2
v -0.6 1.1 -0.2
v -0.6 1.2 0.2
v -0.6 1.2 -0.2
v -0.6 1.4 0.2
v -0.6 1.4 -0.2
v -0.5 0.1 0.2
v -0.5 0.1 -0.2
v -0.5 0.2 0.3
v -0.5 0.2 0.2
v -0.5 0.2 -0.2
v -0.5 0.2 -0.3
v -0.5 0.8 0.3
v -0.5 0.8 0.2
v -0.5 0.9 0.3
v -0.5 0.9 0.2
v -0.5 1.1 0.3
v -0.5 1.1 0.2
v -0.5 1.1 -0.2
v -0.5 1.1 -0.3
v -0.5 1.2 0.3
v -0.5 1.2 0.2
v -0.5 1.2 -0.2
v -0.5 1.2 -0.3
v -0.5 1.4 0.3
v -0.5 1.4 0.2
v -0.5 1.4 0.0999998
v -0.5 1.4 -0.1
v -0.5 1.4 -0.2
v -0.5 1.4 -0.3
v -0.5 1.5 0.0999998
v -0.5 1.5 -0.1
v -0.4 0 0.0999998
v -0.4 0 -0.1
v -0.4 0.1 0.0999998
v -0.4 0.1 -0.1
v -0.2 0 0.0999998
v -0.2 0 -0.1
v -0.2 0.1 0.0999998
v -0.2 0.1 -0.1
v -0.1 0.1 0.2
v -0.1 0.1 -0.2
v -0.1 0.2 0.3
v -0.1 0.2 0.2
v -0.1 0.2 -0.2
v -0.1 0.2 -0.3
v -0.1 0.8 -0.2
v -0.1 0.8 -0.3
v -0.1 0.9 -0.2
v -0.1 0.9 -0.3
v -0.1 1.1 0.3
v -0.1 1.1 0.2
v -0.1 1.1 -0.2
v -0.1 1.1 -0.3
v -0.1 1.2 0.3
v -0.1 1.2 0.2
v -0.1 1.2 -0.2
v -0.1 1.2 -0.3
v -0.1 1.4 0.3
v -0.1 1.4 0.2
v -0.1 1.4 0.0999998
v -0.1 1.4 -0.1
v -0.1 1.4 -0.2
v -0.1 1.4 -0.3
v -0.1 1.5 0.0999998
v -0.1 1.5 -0.1
v -5.96046e-008 0.2 0.2
v -5.96046e-008 0.2 -0.2
v -5.96046e-008 0.5 0.0999998
v -5.96046e-008 0.5 -1.49012e-007
v -5.96046e-008 0.5 -0.1
v -5.96046e-008 0.6 0.0999998
v -5.96046e-008 0.6 -1.49012e-007
v -5.96046e-008 0.6 -0.1
v -5.96046e-008 0.8 -1.49012e-007
v -5.96046e-008 0.8 -0.2
v -5.96046e-008 0.9 -1.49012e-007
v -5.96046e-008 0.9 -0.2
v -5.96046e-008 1.1 0.2
v -5.96046e-008 1.1 -0.2
v -5.96046e-008 1.2 0.2
v -5.96046e-008 1.2 -0.2
v -5.96046e-008 1.4 0.2
v -5.96046e-008 1.4 -0.2
v -0.5 0.2 0.3
v -0.5 0.8 0.3
v -0.5 0.9 0.3
v -0.5 1.1 0.3
v -0.5 1.2 0.3
v -0.5 1.4 0.3
v -0.4 0.5 0.3
v -0.4 0.6 0.3
v -0.3 0.8 0.3
v -0.3 0.9 0.3
v -0.2 0.5 0.3
v -0.2 0.6 0.3
v -0.1 0.2 0.3
v -0.1 1.1 0.3
v -0.1 1.2 0.3
v -0.1 1.4 0.3
v -0.6 0.2 0.2
v -0.6 0.8 0.2
v -0.6 0.9 0.2
v -0.6 1.1 0.2
v -0.6 1.2 0.2
v -0.6 1.4 0.2
v -0.5 0.1 0.2
v -0.5 0.2 0.2
v -0.5 0.8 0.2
v -0.5 0.9 0.2
v -0.5 1.1 0.2
v -0.5 1.2 0.2
v -0.5 1.4 0.2
v -0.1 0.1 0.2
v -0.1 0.2 0.2
v -0.1 1.1 0.2
v -0.1 1.2 0.2
v -0.1 1.4 0.2
v -5.96046e-008 0.2 0.2
v -5.96046e-008 1.1 0.2
v -5.96046e-008 1.2 0.2
v -5.96046e-008 1.4 0.2
v -0.5 1.4 0.0999998
v -0.5 1.5 0.0999998
v -0.4 0 0.0999998
v -0.4 0.1 0.0999998
v -0.2 0 0.0999998
v -0.2 0.1 0.0999998
v -0.1 1.4 0.0999998
v -0.1 1.5 0.0999998
v -0.5 1.4 -0.1
v -0.5 1.5 -0.1
v -0.4 0 -0.1
v -0.4 0.1 -0.1
v -0.2 0 -0.1
v -0.2 0.1 -0.1
v -0.1 1.4 -0.1
v -0.1 1.5 -0.1
v -0.6 0.2 -0.2
v -0.6 1.1 -0.2
v -0.6 1.2 -0.2
v -0.6 1.4 -0.2
v -0.5 0.1 -0.2
v -0.5 0.2 -0.2
v -0.5 1.1 -0.2
v -0.5 1.2 -0.2
v -0.5 1.4 -0.2
v -0.4 1.1 -0.2
v -0.4 1.2 -0.2
v -0.2 1.1 -0.2
v -0.2 1.2 -0.2
v -0.1 0.1 -0.2
v -0.1 0.2 -0.2
v -0.1 0.8 -0.2
v -0.1 0.9 -0.2
v -0.1 1.1 -0.2
v -0.1 1.2 -0.2
v -0.1 1.4 -0.2
v -5.96046e-008 0.2 -0.2
v -5.96046e-008 0.8 -0.2
v -5.96046e-008 0.9 -0.2
v -5.96046e-008 1.1 -0.2
v -5.96046e-008 1.2 -0.2
v -5.96046e-008 1.4 -0.2
v -0.5 0.2 -0.3
v -0.5 1.1 -0.3
v -0.5 1.2 -0.3
v -0.5 1.4 -0.3
v -0.4 0.5 -0.3
v -0.4 0.6 -0.3
v -0.3 0.8 -0.3
v -0.3 0.9 -0.3
v -0.2 0.5 -0.3
v -0.2 0.6 -0.3
v -0.1 0.2 -0.3
v -0.1 0.8 -0.3
v -0.1 0.9 -0.3
v -0.1 1.1 -0.3
v -0.1 1.2 -0.3
v -0.1 1.4 -0.3
v -0.4 0 0.0999998
v -0.2 0 0.0999998
v -0.4 0 -0.1
v -0.2 0 -0.1
v -0.5 0.1 0.2
v -0.1 0.1 0.2
v -0.4 0.1 0.0999998
v -0.2 0.1 0.0999998
v -0.4 0.1 -0.1
v -0.2 0.1 -0.1
v -0.5 0.1 -0.2
v -0.1 0.1 -0.2
v -0.5 0.2 0.3
v -0.1 0.2 0.3
v -0.6 0.2 0.2
v -0.5 0.2 0.2
v -0.1 0.2 0.2
v -5.96046e-008 0.2 0.2
v -0.6 0.2 -0.2
v -0.5 0.2 -0.2
v -0.1 0.2 -0.2
v -5.96046e-008 0.2 -0.2
v -0.5 0.2 -0.3
v -0.1 0.2 -0.3
v -0.5 1.2 0.3
v -0.1 1.2 0.3
v -0.6 1.2 0.2
v -0.5 1.2 0.2
v -0.1 1.2 0.2
v -5.96046e-008 1.2 0.2
v -0.6 1.2 -0.2
v -0.5 1.2 -0.2
v -0.4 1.2 -0.2
v -0.2 1.2 -0.2
v -0.1 1.2 -0.2
v -5.96046e-008 1.2 -0.2
v -0.5 1.2 -0.3
v -0.1 1.2 -0.3
v -0.5 1.1 0.3
v -0.1 1.1 0.3
v -0.6 1.1 0.2
v -0.5 1.1 0.2
v -0.1 1.1 0.2
v -5.96046e-008 1.1 0.2
v -0.6 1.1 -0.2
v -0.5 1.1 -0.2
v -0.4 1.1 -0.2
v -0.2 1.1 -0.2
v -0.1 1.1 -0.2
v -5.96046e-008 1.1 -0.2
v -0.5 1.1 -0.3
v -0.1 1.1 -0.3
v -0.5 1.4 0.3
v -0.1 1.4 0.3
v -0.6 1.4 0.2
v -0.5 1.4 0.2
v -0.1 1.4 0.2
v -5.96046e-008 1.4 0.2
v -0.5 1.4 0.0999998
v -0.1 1.4 0.0999998
v -0.5 1.4 -0.1
v -0.1 1.4 -0.1
v -0.6 1.4 -0.2
v -0.5 1.4 -0.2
v -0.1 1.4 -0.2
v -5.96046e-008 1.4 -0.2
v -0.5 1.4 -0.3
v -0.1 1.4 -0.3
v -0.5 1.5 0.0999998
v -0.1 1.5 0.0999998
v -0.5 1.5 -0.1
v -0.1 1.5 -0.1

# faces
f 3/3/1 2/3/1 1/3/1
f 4/3/1 2/3/1 3/3/1
f 5/3/1 3/3/1 1/3/1
f 5/1/1 4/1/1 3/1/1
f 6/3/1 2/3/1 4/3/1
f 6/1/1 4/1/1 5/1/1
f 7/3/1 5/3/1 1/3/1
f 7/3/1 6/3/1 5/3/1
f 8/3/1 6/3/1 7/3/1
f 9/1/1 8/1/1 7/1/1
f 10/3/1 6/3/1 8/3/1
f 10/1/1 8/1/1 9/1/1
f 11/3/1 10/3/1 9/3/1
f 12/3/1 2/3/1 6/3/1
f 12/3/1 10/3/1 11/3/1
f 12/3/1 6/3/1 10/3/1
f 15/5/1 14/5/1 13/5/1
f 16/5/1 14/5/1 15/5/1
f 20/3/1 18/3/1 17/3/1
f 21/3/1 18/3/1 20/3/1
f 23/3/1 20/3/1 19/3/1
f 24/3/1 20/3/1 23/3/1
f 25/1/1 24/1/1 23/1/1
f 26/1/1 24/1/1 25/1/1
f 27/3/1 26/3/1 25/3/1
f 28/3/1 26/3/1 27/3/1
f 29/3/1 22/3/1 21/3/1
f 30/3/1 22/3/1 29/3/1
f 32/5/1 29/5/1 28/5/1
f 33/5/1 29/5/1 32/5/1
f 35/5/1 32/5/1 31/5/1
f 36/5/1 32/5/1 35/5/1
f 39/5/1 34/5/1 33/5/1
f 40/5/1 34/5/1 39/5/1
f 41/5/1 38/5/1 37/5/1
f 42/5/1 38/5/1 41/5/1
f 45/3/1 44/3/1 43/3/1
f 46/3/1 44/3/1 45/3/1
f 47/3/2 48/3/2 49/3/2
f 49/3/2 48/3/2 50/3/2
f 51/3/2 52/3/2 54/3/2
f 54/3/2 52/3/2 55/3/2
f 55/3/2 56/3/2 57/3/2
f 57/3/2 56/3/2 58/3/2
f 57/1/2 58/1/2 59/1/2
f 59/1/2 58/1/2 60/1/2
f 53/3/2 54/3/2 61/3/2
f 61/3/2 54/3/2 62/3/2
f 59/3/2 60/3/2 63/3/2
f 63/3/2 60/3/2 64/3/2
f 62/5/2 63/5/2 66/5/2
f 66/5/2 63/5/2 67/5/2
f 65/5/2 66/5/2 69/5/2
f 69/5/2 66/5/2 70/5/2
f 67/5/2 68/5/2 73/5/2
f 73/5/2 68/5/2 74/5/2
f 71/5/2 72/5/2 75/5/2
f 75/5/2 72/5/2 76/5/2
f 77/3/2 78/3/2 79/3/2
f 79/3/2 78/3/2 80/3/2
f 80/3/2 78/3/2 81/3/2
f 77/3/2 79/3/2 82/3/2
f 79/2/2 80/2/2 82/2/2
f 80/1/2 81/1/2 83/1/2
f 82/2/2 80/2/2 83/2/2
f 81/3/2 78/3/2 84/3/2
f 83/1/2 81/1/2 84/1/2
f 82/3/2 83/3/2 85/3/2
f 83/3/2 84/3/2 85/3/2
f 84/3/2 78/3/2 86/3/2
f 85/3/2 84/3/2 86/3/2
f 82/3/2 85/3/2 87/3/2
f 85/1/2 86/1/2 87/1/2
f 87/1/2 86/1/2 88/1/2
f 77/3/2 82/3/2 89/3/2
f 82/3/2 87/3/2 89/3/2
f 87/3/2 88/3/2 89/3/2
f 89/3/2 88/3/2 90/3/2
f 91/5/2 92/5/2 93/5/2
f 93/5/2 92/5/2 94/5/2
f 101/3/3 96/3/3 95/3/3
f 102/3/3 96/3/3 101/3/3
f 103/1/3 97/1/3 96/1/3
f 103/3/3 96/3/3 102/3/3
f 104/3/3 98/3/3 97/3/3
f 104/1/3 97/1/3 103/1/3
f 105/1/3 102/1/3 101/1/3
f 105/3/3 101/3/3 95/3/3
f 106/3/3 103/3/3 102/3/3
f 106/1/3 102/1/3 105/1/3
f 106/3/3 104/3/3 103/3/3
f 107/3/3 105/3/3 95/3/3
f 107/3/3 106/3/3 105/3/3
f 108/3/3 98/3/3 104/3/3
f 108/3/3 106/3/3 107/3/3
f 108/3/3 104/3/3 106/3/3
f 109/5/3 100/5/3 99/5/3
f 110/5/3 100/5/3 109/5/3
f 118/3/3 112/3/3 111/3/3
f 119/1/3 113/1/3 112/1/3
f 119/3/3 112/3/3 118/3/3
f 120/3/3 114/3/3 113/3/3
f 120/1/3 113/1/3 119/1/3
f 121/3/3 114/3/3 120/3/3
f 122/5/3 116/5/3 115/5/3
f 123/5/3 116/5/3 122/5/3
f 124/3/3 118/3/3 117/3/3
f 125/3/3 118/3/3 124/3/3
f 126/5/3 122/5/3 121/5/3
f 127/5/3 122/5/3 126/5/3
f 129/3/3 126/3/3 125/3/3
f 130/3/3 126/3/3 129/3/3
f 131/5/3 128/5/3 127/5/3
f 132/5/3 128/5/3 131/5/3
f 137/3/3 136/3/3 135/3/3
f 138/3/3 136/3/3 137/3/3
f 139/5/3 134/5/3 133/5/3
f 140/5/3 134/5/3 139/5/3
f 143/3/4 144/3/4 145/3/4
f 145/3/4 144/3/4 146/3/4
f 141/5/4 142/5/4 147/5/4
f 147/5/4 142/5/4 148/5/4
f 149/3/4 150/3/4 154/3/4
f 154/3/4 150/3/4 155/3/4
f 151/5/4 152/5/4 156/5/4
f 156/5/4 152/5/4 157/5/4
f 155/5/4 156/5/4 158/5/4
f 158/5/4 156/5/4 159/5/4
f 158/6/4 159/6/4 160/6/4
f 160/6/4 159/6/4 161/6/4
f 153/3/4 154/3/4 162/3/4
f 162/3/4 154/3/4 163/3/4
f 160/5/4 161/5/4 166/5/4
f 166/5/4 161/5/4 167/5/4
f 163/3/4 164/3/4 169/3/4
f 164/1/4 165/1/4 170/1/4
f 169/3/4 164/3/4 170/3/4
f 165/3/4 166/3/4 171/3/4
f 170/1/4 165/1/4 171/1/4
f 171/3/4 166/3/4 172/3/4
f 167/5/4 168/5/4 173/5/4
f 173/5/4 168/5/4 174/5/4
f 175/3/4 176/3/4 179/3/4
f 179/3/4 176/3/4 180/3/4
f 180/3/4 176/3/4 181/3/4
f 181/3/4 176/3/4 182/3/4
f 175/3/4 179/3/4 183/3/4
f 179/1/4 180/1/4 183/1/4
f 180/3/4 181/3/4 184/3/4
f 183/1/4 180/1/4 184/1/4
f 175/3/4 183/3/4 185/3/4
f 183/3/4 184/3/4 185/3/4
f 181/1/4 182/1/4 186/1/4
f 185/3/4 184/3/4 186/3/4
f 184/3/4 181/3/4 186/3/4
f 182/3/4 176/3/4 187/3/4
f 186/1/4 182/1/4 187/1/4
f 187/3/4 176/3/4 188/3/4
f 177/5/4 178/5/4 189/5/4
f 189/5/4 178/5/4 190/5/4
f 193/3/5 192/3/5 191/3/5
f 194/3/5 192/3/5 193/3/5
f 197/3/5 196/3/5 195/3/5
f 198/3/5 196/3/5 197/3/5
f 199/3/5 197/3/5 195/3/5
f 200/3/5 196/3/5 198/3/5
f 201/3/5 199/3/5 195/3/5
f 201/3/5 200/3/5 199/3/5
f 202/3/5 196/3/5 200/3/5
f 202/3/5 200/3/5 201/3/5
f 206/3/5 204/3/5 203/3/5
f 207/3/5 204/3/5 206/3/5
f 209/3/5 206/3/5 205/3/5
f 210/3/5 206/3/5 209/3/5
f 211/3/5 208/3/5 207/3/5
f 212/3/5 208/3/5 211/3/5
f 213/3/5 211/3/5 210/3/5
f 214/3/5 211/3/5 213/3/5
f 218/5/5 216/5/5 215/5/5
f 219/5/5 216/5/5 218/5/5
f 221/5/5 218/5/5 217/5/5
f 222/5/5 218/5/5 221/5/5
f 225/5/5 220/5/5 219/5/5
f 226/5/5 220/5/5 225/5/5
f 227/5/5 224/5/5 223/5/5
f 227/5/5 225/5/5 224/5/5
f 227/5/5 223/5/5 222/5/5
f 228/5/5 225/5/5 227/5/5
f 229/3/6 230/3/6 232/3/6
f 232/3/6 230/3/6 233/3/6
f 231/3/6 232/3/6 235/3/6
f 235/3/6 232/3/6 236/3/6
f 233/3/6 234/3/6 239/3/6
f 239/3/6 234/3/6 240/3/6
f 237/3/6 238/3/6 241/3/6
f 238/3/6 239/3/6 241/3/6
f 236/3/6 237/3/6 241/3/6
f 241/3/6 239/3/6 242/3/6
f 243/5/6 244/5/6 246/5/6
f 246/5/6 244/5/6 247/5/6
f 245/5/6 246/5/6 249/5/6
f 247/5/6 248/5/6 249/5/6
f 246/5/6 247/5/6 249/5/6
f 249/5/6 248/5/6 250/5/6
f 245/5/6 249/5/6 251/5/6
f 250/5/6 248/5/6 252/5/6
f 245/5/6 251/5/6 253/5/6
f 251/5/6 252/5/6 253/5/6
f 253/5/6 252/5/6 254/5/6
f 252/5/6 248/5/6 255/5/6
f 254/5/6 252/5/6 255/5/6
f 255/5/6 248/5/6 256/5/6
f 254/5/6 255/5/6 257/5/6
f 257/5/6 255/5/6 258/5/6
f 259/5/6 260/5/6 261/5/6
f 261/5/6 260/5/6 262/5/6
